<?xml version="1.0" encoding="UTF-8"?>
<svg xmlns="http://www.w3.org/2000/svg" xmlns:xlink="http://www.w3.org/1999/xlink" width="14px" height="14px" viewBox="0 0 14 14" version="1.1">
<g id="surface1">
<path style=" stroke:none;fill-rule:nonzero;fill:rgb(50.980392%,50.980392%,50.980392%);fill-opacity:1;" d="M 0 13.773438 C 0 13.894531 0.0976562 13.992188 0.21875 13.992188 L 13.828125 13.992188 C 13.859375 13.992188 13.886719 13.984375 13.914062 13.972656 C 13.941406 13.960938 13.964844 13.945312 13.984375 13.925781 C 13.984375 13.925781 13.984375 13.925781 13.988281 13.925781 C 13.988281 13.925781 13.988281 13.921875 13.988281 13.921875 C 14.011719 13.894531 14.027344 13.867188 14.035156 13.835938 C 14.039062 13.824219 14.039062 13.816406 14.042969 13.804688 C 14.042969 13.792969 14.050781 13.785156 14.050781 13.773438 C 14.050781 13.753906 14.042969 13.738281 14.039062 13.722656 C 14.039062 13.71875 14.039062 13.710938 14.039062 13.707031 L 12.65625 9.453125 C 12.644531 9.421875 12.625 9.390625 12.601562 9.367188 L 5.113281 1.878906 C 5.105469 1.867188 5.101562 1.851562 5.089844 1.84375 L 3.453125 0.207031 C 3.1875 -0.0585938 2.753906 -0.0585938 2.488281 0.207031 L 0.199219 2.496094 C 0.0703125 2.625 0 2.796875 0 2.976562 C 0 3.160156 0.0703125 3.332031 0.199219 3.460938 L 1.800781 5.058594 C 1.808594 5.070312 1.8125 5.085938 1.824219 5.097656 L 9.300781 12.625 C 9.324219 12.648438 9.355469 12.667969 9.390625 12.679688 L 12.328125 13.554688 L 0.21875 13.554688 C 0.0976562 13.554688 0 13.652344 0 13.773438 Z M 2.785156 4.445312 L 9.644531 11.21875 L 9.394531 12.097656 L 2.285156 4.941406 Z M 9.980469 10.9375 L 3.09375 4.136719 L 4.160156 3.070312 L 10.988281 9.917969 L 10.988281 10.9375 Z M 11.257812 9.570312 L 4.46875 2.761719 L 4.921875 2.304688 L 12.015625 9.398438 Z M 10.058594 11.375 L 11.207031 11.375 C 11.324219 11.375 11.425781 11.277344 11.425781 11.15625 L 11.425781 9.980469 L 12.300781 9.78125 L 13.492188 13.445312 L 9.78125 12.335938 Z M 0.4375 2.976562 C 0.4375 2.914062 0.460938 2.851562 0.507812 2.804688 L 2.800781 0.515625 C 2.894531 0.421875 3.046875 0.421875 3.144531 0.515625 L 4.621094 1.992188 L 1.984375 4.625 L 0.507812 3.152344 C 0.460938 3.105469 0.4375 3.042969 0.4375 2.976562 Z M 0.4375 2.976562 "/>
</g>
</svg>
